<svg width="50" height="50" viewBox="0 0 50 50" fill="none" xmlns="http://www.w3.org/2000/svg">
  <path d="M35.4166 43.75V39.5833C35.4166 34.981 31.6857 31.25 27.0833 31.25H10.4166C5.81427 31.25 2.08331 34.981 2.08331 39.5833V43.75" stroke="black" stroke-width="3" stroke-linecap="round" stroke-linejoin="round"/>
  <path fill-rule="evenodd" clip-rule="evenodd" d="M18.75 22.9167C23.3524 22.9167 27.0834 19.1857 27.0834 14.5833C27.0834 9.98096 23.3524 6.25 18.75 6.25C14.1476 6.25 10.4167 9.98096 10.4167 14.5833C10.4167 19.1857 14.1476 22.9167 18.75 22.9167Z" stroke="black" stroke-width="3" stroke-linecap="round" stroke-linejoin="round"/>
  <path d="M47.9167 43.7499V39.5833C47.9139 35.7856 45.3438 32.4702 41.6667 31.5208" stroke="black" stroke-width="3" stroke-linecap="round" stroke-linejoin="round"/>
  <path d="M33.3333 6.52075C37.0206 7.46486 39.5997 10.7874 39.5997 14.5937C39.5997 18.3999 37.0206 21.7225 33.3333 22.6666" stroke="black" stroke-width="3" stroke-linecap="round" stroke-linejoin="round"/>
</svg>
